<svg width="534" height="337" viewBox="0 0 534 337" fill="none" xmlns="http://www.w3.org/2000/svg">
<path d="M254.359 82.6411C236.147 64.4296 213.526 51.2497 188.703 44.387C163.879 37.5243 137.7 37.2133 112.72 43.4843C87.7407 49.7553 64.8129 62.3941 46.1739 80.1677C27.5349 97.9414 13.8213 120.243 6.37078 144.897C-1.07972 169.55 -2.0126 195.714 3.66314 220.836C9.33888 245.958 21.4294 269.179 38.7552 288.235C56.081 307.291 78.0504 321.531 102.52 329.565C126.99 337.599 153.124 339.153 178.374 334.076L170.506 294.949C152.02 298.667 132.885 297.529 114.97 291.647C97.0544 285.764 80.9695 275.339 68.2844 261.387C55.5994 247.435 46.7473 230.434 42.5918 212.041C38.4363 193.648 39.1194 174.492 44.5742 156.442C50.0291 138.392 60.0695 122.064 73.716 109.051C87.3625 96.0378 104.149 86.7843 122.438 82.193C140.727 77.6017 159.894 77.8294 178.068 82.8539C196.243 87.8784 212.805 97.5281 226.138 110.862L254.359 82.6411Z" fill="black"/>
<rect x="254.507" y="82.5367" width="170" height="40.3154" transform="rotate(45 254.507 82.5367)" fill="black"/>
<path d="M345.866 231.134C353.574 238.841 363.207 244.343 373.761 247.066C384.316 249.789 395.408 249.634 405.883 246.617C416.357 243.6 425.832 237.832 433.322 229.912C440.811 221.992 446.041 212.209 448.469 201.582C450.896 190.956 450.431 179.873 447.123 169.486C443.814 159.1 437.783 149.79 429.657 142.525C421.531 135.259 411.606 130.304 400.916 128.175C390.225 126.046 379.16 126.82 368.87 130.417L382.275 168.762C385.712 167.56 389.409 167.301 392.981 168.013C396.553 168.724 399.868 170.38 402.583 172.807C405.298 175.234 407.313 178.345 408.419 181.815C409.524 185.285 409.679 188.987 408.868 192.538C408.057 196.088 406.31 199.356 403.808 202.003C401.306 204.649 398.14 206.576 394.64 207.584C391.141 208.592 387.435 208.643 383.909 207.734C380.383 206.824 377.164 204.986 374.589 202.411L345.866 231.134Z" fill="black"/>
<circle cx="513" cy="190" r="21" fill="black"/>
<path d="M364.569 31.7462C347.175 70.2108 341.963 89.1962 341.926 117.802L278.922 55.8876C323.036 29.1644 338.933 28.5082 364.569 31.7462Z" fill="#41C1E0"/>
<circle cx="99" cy="145" r="18" fill="#41C1E0"/>
<path d="M291.108 245.984C291.421 291.974 294.694 306.482 303.027 323.264C274.737 322.297 258.56 316.718 228.852 293.295L291.108 245.984Z" fill="#41C1E0"/>
</svg>
